<svg width="24" height="24" viewBox="0 0 24 24" fill="none" xmlns="http://www.w3.org/2000/svg">
<path d="M20.6668 19.3334V10.2668C20.6668 10.1012 20.6282 9.93785 20.5542 9.78974C20.4801 9.64162 20.3726 9.51279 20.2401 9.41343L12.7734 3.81343C12.5888 3.67495 12.3642 3.6001 12.1334 3.6001C11.9026 3.6001 11.6781 3.67495 11.4934 3.81343L4.02676 9.41343C3.89429 9.51279 3.78676 9.64162 3.71271 9.78974C3.63865 9.93785 3.6001 10.1012 3.6001 10.2668V19.3334C3.6001 19.6163 3.71248 19.8876 3.91252 20.0877C4.11256 20.2877 4.38387 20.4001 4.66676 20.4001H8.93343C9.21633 20.4001 9.48764 20.2877 9.68768 20.0877C9.88772 19.8876 10.0001 19.6163 10.0001 19.3334V16.1334C10.0001 15.8505 10.1125 15.5792 10.3125 15.3792C10.5126 15.1791 10.7839 15.0668 11.0668 15.0668H13.2001C13.483 15.0668 13.7543 15.1791 13.9543 15.3792C14.1544 15.5792 14.2668 15.8505 14.2668 16.1334V19.3334C14.2668 19.6163 14.3791 19.8876 14.5792 20.0877C14.7792 20.2877 15.0505 20.4001 15.3334 20.4001H19.6001C19.883 20.4001 20.1543 20.2877 20.3543 20.0877C20.5544 19.8876 20.6668 19.6163 20.6668 19.3334Z" fill="#8CB5D7"/>
</svg>
