<svg width="24" height="24" viewBox="0 0 24 24" fill="none" xmlns="http://www.w3.org/2000/svg">
<path fill-rule="evenodd" clip-rule="evenodd" d="M22.6665 11.9991C22.6665 17.8899 17.8906 22.6658 11.9998 22.6658C6.10905 22.6658 1.33317 17.8899 1.33317 11.9991C1.33317 6.10831 6.10905 1.33244 11.9998 1.33244C17.8906 1.33244 22.6665 6.10832 22.6665 11.9991ZM11.9998 21.3324C17.1542 21.3324 21.3332 17.1535 21.3332 11.9991C21.3332 6.8447 17.1542 2.66577 11.9998 2.66577C6.84543 2.66577 2.66651 6.84469 2.66651 11.9991C2.66651 17.1535 6.84543 21.3324 11.9998 21.3324ZM10.8448 16.2999L10.8448 11.7217C10.8448 11.0842 11.362 10.5663 12.0003 10.5663C12.6385 10.5663 13.1557 11.0842 13.1557 11.7217L13.1557 16.2999C13.1557 16.9382 12.6385 17.4554 12.0003 17.4554C11.362 17.4554 10.8448 16.9382 10.8448 16.2999ZM12 9.30526C11.4382 9.30526 10.932 8.96698 10.7171 8.44822C10.5015 7.92946 10.6203 7.33182 11.0179 6.93494C11.4148 6.53728 12.0125 6.41854 12.5312 6.63338C13.0507 6.84822 13.389 7.35526 13.389 7.91698C13.389 8.28494 13.2421 8.63808 12.982 8.89902C12.7218 9.15918 12.3679 9.30526 11.9999 9.30526L12 9.30526Z" fill="#8CB5D7"/>
</svg>
