<?xml version="1.0" standalone="no"?>
<!DOCTYPE svg PUBLIC "-//W3C//DTD SVG 20010904//EN"
 "http://www.w3.org/TR/2001/REC-SVG-20010904/DTD/svg10.dtd">
<svg version="1.0" xmlns="http://www.w3.org/2000/svg"
 width="144.000000pt" height="144.000000pt" viewBox="0 0 144.000000 144.000000"
 preserveAspectRatio="xMidYMid meet">
<metadata>
Created by potrace 1.14, written by Peter Selinger 2001-2017
</metadata>
<g transform="translate(0.000000,144.000000) scale(0.100000,-0.100000)"
fill="#000000" stroke="none">
<path d="M429 1357 c-68 -23 -175 -82 -220 -121 -49 -42 -122 -141 -150 -201
-43 -91 -59 -176 -55 -285 6 -163 61 -286 180 -406 110 -111 266 -177 411
-176 28 1 86 1 130 1 193 -1 204 0 302 32 134 44 275 165 339 292 56 109 69
169 67 302 -1 162 -76 324 -201 435 -56 51 -182 119 -254 138 -21 6 -138 10
-260 11 -204 0 -229 -2 -289 -22z m343 -226 c69 -29 150 -110 189 -188 31 -63
33 -75 33 -163 0 -74 -5 -107 -22 -150 -31 -79 -108 -162 -187 -201 l-64 -31
-63 29 c-150 72 -240 239 -215 403 17 119 96 232 203 292 59 32 70 33 126 9z"/>
</g>
</svg>
